<svg width="507" height="435" viewBox="0 0 507 435" fill="none" xmlns="http://www.w3.org/2000/svg">
<g clip-path="url(#clip0_42_129)">
<path d="M211.782 423.292H223.418L228.953 378.371L211.78 378.372L211.782 423.292Z" fill="#FFB8B8"/>
<path d="M245.858 434.105L209.289 434.107L209.289 419.965L231.729 419.964C233.584 419.964 235.421 420.33 237.135 421.04C238.85 421.751 240.407 422.793 241.719 424.106C243.031 425.419 244.072 426.978 244.782 428.694C245.492 430.409 245.858 432.248 245.858 434.105Z" fill="#0B090B"/>
<path d="M104.401 416.611L115.795 418.969L130.305 376.101L113.488 372.62L104.401 416.611Z" fill="#FFB8B8"/>
<path d="M135.583 434.107L99.7717 426.696L102.632 412.847L124.607 417.395C128.277 418.154 131.495 420.342 133.553 423.476C135.611 426.61 136.341 430.434 135.583 434.107Z" fill="#0B090B"/>
<path d="M135.962 272.077C134.981 271.085 134.229 269.888 133.76 268.573C133.29 267.258 133.114 265.856 133.245 264.466C133.375 263.075 133.809 261.731 134.515 260.526C135.221 259.321 136.182 258.286 137.331 257.494L128.302 224.773L145.067 230.213L151.071 260.452C152.273 262.472 152.693 264.863 152.252 267.172C151.81 269.481 150.538 271.548 148.675 272.981C146.813 274.414 144.49 275.114 142.147 274.947C139.804 274.781 137.603 273.76 135.962 272.077Z" fill="#FFB8B8"/>
<path d="M208.383 406.822C207.367 406.823 206.385 406.462 205.612 405.803C204.839 405.145 204.325 404.231 204.165 403.228L182.48 283.63C182.433 283.325 182.288 283.043 182.067 282.827C181.846 282.611 181.561 282.473 181.254 282.434C180.948 282.395 180.637 282.456 180.369 282.609C180.1 282.762 179.889 282.998 179.766 283.282L131.457 395.156C131.027 396.136 130.248 396.92 129.272 397.356C128.295 397.792 127.192 397.848 126.176 397.513L109.207 391.805C108.653 391.619 108.144 391.322 107.71 390.931C107.276 390.54 106.927 390.065 106.684 389.533C106.441 389.002 106.309 388.427 106.297 387.843C106.285 387.259 106.392 386.678 106.613 386.137L129.969 328.872L149.467 242.47L149.604 242.365C149.98 242.079 187.49 214.056 213.123 236.471C236.579 256.984 232.214 374.201 231.101 397.49C231.061 398.41 230.723 399.292 230.137 400.003C229.552 400.714 228.751 401.215 227.856 401.43L209.419 406.696C209.08 406.779 208.732 406.822 208.383 406.822Z" fill="#413941"/>
<path d="M171.625 141.124C184.499 141.124 194.935 130.678 194.935 117.792C194.935 104.906 184.499 94.4603 171.625 94.4603C158.751 94.4603 148.315 104.906 148.315 117.792C148.315 130.678 158.751 141.124 171.625 141.124Z" fill="#FFB8B8"/>
<path d="M216.949 261.628C215.967 260.635 215.216 259.439 214.746 258.124C214.277 256.809 214.101 255.407 214.232 254.016C214.362 252.626 214.796 251.281 215.502 250.077C216.207 248.872 217.169 247.837 218.317 247.045L209.289 214.323L226.053 219.764L232.057 250.002C233.259 252.022 233.68 254.413 233.238 256.723C232.797 259.032 231.524 261.099 229.662 262.532C227.8 263.965 225.477 264.664 223.134 264.498C220.791 264.331 218.59 263.31 216.949 261.628Z" fill="#FFB8B8"/>
<path d="M145.79 252.301C145.466 252.301 145.145 252.237 144.846 252.114C135.002 248.109 142.851 169.929 143.19 166.603L143.228 166.461C143.471 165.905 143.717 165.36 143.966 164.826C146.391 159.428 150.454 154.933 155.577 151.977C160.7 149.022 166.624 147.757 172.506 148.362C178.483 148.822 184.17 151.127 188.783 154.961C193.395 158.794 196.705 163.966 198.255 169.762L216.495 236.655C216.69 237.365 216.698 238.114 216.517 238.829C216.337 239.543 215.976 240.199 215.467 240.732C214.959 241.265 214.322 241.658 213.618 241.872C212.913 242.085 212.165 242.113 211.447 241.952C197.255 238.78 162.862 233.147 150.041 249.331C148.465 251.32 147.065 252.301 145.79 252.301Z" fill="#85A9FF"/>
<path d="M216.47 245.879C216.002 245.878 215.538 245.801 215.095 245.65C214.549 245.468 214.046 245.175 213.616 244.791C213.187 244.407 212.84 243.939 212.598 243.417L196.723 209.543L181.277 165.038C180.616 163.125 180.518 161.061 180.997 159.094C181.476 157.127 182.51 155.339 183.976 153.944C185.188 152.795 186.656 151.95 188.258 151.481C189.86 151.011 191.552 150.93 193.191 151.245C194.831 151.559 196.373 152.26 197.688 153.289C199.004 154.318 200.056 155.646 200.757 157.162L221.31 201.611L237.348 230.606C237.624 231.105 237.797 231.655 237.858 232.222C237.919 232.79 237.865 233.364 237.7 233.91C237.536 234.456 237.263 234.964 236.9 235.404C236.536 235.843 236.088 236.205 235.582 236.469L218.435 245.394C217.828 245.711 217.154 245.878 216.47 245.879Z" fill="#85A9FF"/>
<path d="M147.107 254.206C146.953 254.206 146.8 254.198 146.647 254.182L127.428 252.141C126.856 252.08 126.301 251.904 125.799 251.624C125.296 251.343 124.855 250.964 124.502 250.509C124.15 250.053 123.893 249.531 123.747 248.974C123.601 248.417 123.569 247.836 123.653 247.266L129.113 210.251L140.797 164.613C141.301 162.652 142.359 160.878 143.844 159.503C145.328 158.128 147.177 157.209 149.169 156.857C150.813 156.569 152.503 156.676 154.098 157.171C155.693 157.665 157.147 158.533 158.34 159.702C159.534 160.87 160.432 162.307 160.961 163.892C161.49 165.477 161.634 167.165 161.382 168.817L153.986 217.234L151.355 250.27C151.269 251.34 150.785 252.339 149.998 253.068C149.211 253.797 148.179 254.203 147.107 254.206Z" fill="#85A9FF"/>
<path d="M175.308 105.246L194.68 103.834C195.333 99.4472 194.498 94.9681 192.308 91.1128C190.118 87.2575 186.699 84.2489 182.599 82.5682C174.342 79.4287 164.093 82.916 160.921 87.9174C156.744 87.5546 152.539 88.15 148.627 89.6585C144.715 91.1669 141.197 93.5487 138.343 96.6226C135.489 99.6965 133.372 103.381 132.155 107.397C130.938 111.413 130.652 115.654 131.318 119.797C131.985 123.94 133.587 127.876 136.002 131.307C138.418 134.737 141.583 137.57 145.257 139.592C148.931 141.613 153.018 142.769 157.205 142.972C161.393 143.175 165.572 142.419 169.424 140.762C161.429 129.53 165.534 111.68 175.308 105.246Z" fill="#0B090B"/>
<path d="M140.078 94.5356C134.067 89.0385 126.719 84.6443 118.635 83.6734C110.551 82.7026 101.718 85.6675 97.0634 92.3546C92.4092 99.0416 93.2201 109.436 99.767 114.281C102.455 116.271 104.494 119.013 105.627 122.161C106.76 125.31 106.935 128.724 106.132 131.972C105.328 135.22 103.581 138.157 101.111 140.413C98.6411 142.668 95.5591 144.141 92.254 144.644C80.2337 146.477 71.183 158.874 72.0829 171.01C72.9828 183.147 82.9185 193.728 94.7691 196.451C106.62 199.174 119.586 194.491 127.857 185.571C136.128 176.65 139.832 163.986 138.889 151.852C137.947 139.719 132.625 128.16 124.974 118.701C122.897 116.132 124.457 112.059 127.127 110.115C129.796 108.17 133.195 107.626 136.32 106.559C139.445 105.491 142.669 103.479 143.39 100.254C144.11 97.0292 140.457 93.263 140.078 94.5356Z" fill="#0B090B"/>
<path d="M490.866 166.242H357.046C352.769 166.237 348.668 164.534 345.643 161.506C342.618 158.479 340.917 154.374 340.912 150.093V16.1492C340.917 11.8676 342.618 7.76283 345.643 4.73531C348.668 1.70779 352.769 0.00481993 357.046 0H490.866C495.143 0.00481993 499.244 1.70779 502.269 4.73531C505.294 7.76283 506.995 11.8676 507 16.1492V150.093C506.995 154.374 505.294 158.479 502.269 161.506C499.244 164.534 495.143 166.237 490.866 166.242ZM357.046 1.89991C353.272 1.90418 349.654 3.40681 346.985 6.07814C344.316 8.74948 342.815 12.3714 342.81 16.1492V150.093C342.815 153.87 344.316 157.492 346.985 160.164C349.654 162.835 353.272 164.338 357.046 164.342H490.866C494.64 164.338 498.259 162.835 500.928 160.164C503.596 157.492 505.098 153.87 505.102 150.093V16.1492C505.098 12.3714 503.596 8.74948 500.928 6.07814C498.259 3.40681 494.64 1.90418 490.866 1.89991H357.046Z" fill="#F5F4F4"/>
<path d="M419.663 108.435C416.913 108.46 414.19 107.905 411.668 106.807C409.147 105.709 406.885 104.092 405.03 102.061C400.695 97.3241 398.575 90.4539 399.212 83.212C399.741 76.7569 402.443 70.6726 406.875 65.9536C408.99 63.6634 411.55 61.8298 414.398 60.5652C417.246 59.3007 420.322 58.6318 423.437 58.5997C426.324 58.587 429.18 59.1826 431.821 60.3479C434.462 61.5131 436.829 63.2218 438.767 65.3628C440.975 67.863 442.642 70.7943 443.662 73.9717C444.681 77.1491 445.032 80.5036 444.691 83.8234C444.043 91.1831 441.186 97.4337 436.432 101.899C431.88 106.139 425.881 108.477 419.663 108.435ZM423.437 65.566C414.641 65.566 407.045 73.5854 406.145 83.8229C405.679 89.1237 407.143 94.0563 410.162 97.3564C411.362 98.6791 412.831 99.7302 414.469 100.439C416.107 101.149 417.878 101.5 419.663 101.469C427.869 101.469 436.647 95.8235 437.758 83.2113C438.015 80.8541 437.781 78.4694 437.071 76.2072C436.361 73.9451 435.191 71.8545 433.634 70.0673C432.345 68.6427 430.771 67.5057 429.014 66.7302C427.258 65.9546 425.357 65.5579 423.437 65.566Z" fill="#85A9FF"/>
<path d="M452.74 108.527C451.964 108.528 451.19 108.462 450.425 108.328C448.416 107.981 446.499 107.228 444.79 106.116C443.08 105.004 441.615 103.555 440.483 101.858C438.01 98.1733 436.966 93.2358 437.464 87.5792L439.734 61.7905C439.816 60.8716 440.26 60.0231 440.967 59.4312C441.674 58.8393 442.587 58.5523 443.505 58.6333C444.423 58.7143 445.272 59.1566 445.865 59.8631C446.457 60.5697 446.746 61.4827 446.667 62.4019L444.397 88.1905C443.747 95.5845 446.454 100.548 451.64 101.469C453.42 101.784 456.618 101.295 459.774 98.8746C462.997 96.4031 467.028 91.295 467.934 80.9962C468.975 69.1807 465.958 59.0375 459.211 51.6626C452.137 43.9311 441.429 39.8444 428.245 39.8444C404.01 39.8444 382.568 59.5724 380.447 83.8213C380.032 88.3834 380.36 92.9827 381.418 97.4396C381.634 98.3377 381.485 99.285 381.003 100.073C380.522 100.861 379.747 101.425 378.85 101.641C377.953 101.858 377.006 101.708 376.219 101.226C375.432 100.744 374.868 99.9686 374.652 99.0705C373.417 93.8815 373.033 88.5261 373.514 83.2137C374.9 69.5725 381.237 56.9141 391.324 47.637C401.411 38.3599 414.548 33.1086 428.245 32.8782C443.434 32.8782 455.916 37.7469 464.344 46.958C472.329 55.6858 476.066 67.9912 474.867 81.6074C473.739 94.4302 468.339 101.082 464.007 104.404C460.794 106.96 456.842 108.407 452.74 108.527Z" fill="#85A9FF"/>
<path d="M419.941 134.157C408.519 134.248 397.455 130.171 388.818 122.689C388.475 122.387 388.194 122.02 387.992 121.61C387.79 121.199 387.67 120.753 387.641 120.296C387.611 119.839 387.672 119.381 387.819 118.948C387.967 118.514 388.198 118.114 388.5 117.771C388.802 117.427 389.169 117.146 389.579 116.944C389.99 116.743 390.436 116.624 390.892 116.595C391.349 116.566 391.807 116.627 392.239 116.775C392.672 116.923 393.071 117.155 393.414 117.458C400.781 123.821 410.211 127.281 419.941 127.19C427.743 127.19 432.465 126.669 439.815 123.577C440.237 123.4 440.689 123.308 441.146 123.305C441.603 123.303 442.056 123.39 442.479 123.563C442.902 123.736 443.288 123.991 443.612 124.312C443.937 124.634 444.196 125.017 444.373 125.439C444.55 125.861 444.642 126.313 444.644 126.771C444.647 127.228 444.559 127.682 444.386 128.105C444.213 128.529 443.959 128.914 443.637 129.239C443.315 129.564 442.933 129.823 442.511 130C434.106 133.535 428.536 134.157 419.941 134.157Z" fill="#85A9FF"/>
<path d="M362.546 435H0.949074C0.697364 435 0.455977 434.9 0.277991 434.722C0.100005 434.544 0 434.302 0 434.05C0 433.798 0.100005 433.556 0.277991 433.378C0.455977 433.2 0.697364 433.1 0.949074 433.1H362.546C362.798 433.1 363.039 433.2 363.217 433.378C363.395 433.556 363.495 433.798 363.495 434.05C363.495 434.302 363.395 434.544 363.217 434.722C363.039 434.9 362.798 435 362.546 435Z" fill="#F5F4F4"/>
</g>
<defs>
<clipPath id="clip0_42_129">
<rect width="507" height="435" fill="white"/>
</clipPath>
</defs>
</svg>
