<svg width="233" height="402" viewBox="0 0 233 402" fill="none" xmlns="http://www.w3.org/2000/svg">
<g clip-path="url(#clip0_45_624)">
<path d="M32.5977 401.09C32.5977 401.595 33.0043 402 33.5106 402H232.087C232.594 402 233 401.595 233 401.09C233 400.585 232.594 400.179 232.087 400.179H33.5106C33.0043 400.179 32.5977 400.585 32.5977 401.09Z" fill="#F0F0F0"/>
<path d="M137.026 0.252499C137.026 0.252499 120.217 -3.81019 110.044 20.7343C101.567 41.1931 95.552 52.1188 102.434 59.5403C104.896 62.1952 108.41 63.6259 112.031 63.7483L150.774 65.0184C150.774 65.0184 164.997 27.8191 156.351 14.3686C147.705 0.910488 137.026 0.252499 137.026 0.252499Z" fill="#0B090B"/>
<path d="M145.051 61.9274L126.416 68.0405V41.2849H143.325L145.051 61.9274Z" fill="#F6A6A9"/>
<path d="M130.751 386.139H113.29L103.17 293.118H130.152L130.751 386.139Z" fill="#F6A6A9"/>
<path d="M96.2888 401.09C94.4553 401.09 92.8212 401.044 91.586 400.929C86.9446 400.508 82.5256 397.096 80.3008 395.099C79.3035 394.204 78.9813 392.773 79.503 391.541C79.8789 390.654 80.623 389.996 81.5437 389.735L93.7955 386.247L113.635 372.896L113.857 373.293C113.942 373.439 115.89 376.943 116.542 379.307C116.788 380.21 116.727 380.96 116.351 381.534C116.09 381.939 115.729 382.169 115.43 382.299C115.791 382.674 116.918 383.431 120.378 383.982C125.442 384.785 126.5 379.552 126.546 379.33L126.577 379.154L126.731 379.055C129.139 377.509 130.62 376.805 131.134 376.951C131.456 377.042 131.986 377.203 133.42 391.449C133.566 391.893 134.571 395.175 133.888 398.305C133.144 401.717 118.207 400.539 115.215 400.271C115.131 400.278 103.945 401.074 96.2812 401.074V401.09H96.2888Z" fill="#2C262C"/>
<path d="M170.184 386.139H152.73L142.604 293.118H169.585L170.184 386.139Z" fill="#F6A6A9"/>
<path d="M135.729 401.09C133.896 401.09 132.262 401.044 131.026 400.929C126.385 400.508 121.966 397.096 119.741 395.099C118.744 394.204 118.422 392.773 118.943 391.541C119.319 390.654 120.063 389.996 120.984 389.735L133.236 386.247L153.075 372.896L153.298 373.293C153.382 373.439 155.331 376.943 155.983 379.307C156.228 380.21 156.167 380.96 155.791 381.534C155.53 381.939 155.17 382.169 154.87 382.299C155.231 382.674 156.359 383.431 159.819 383.982C164.882 384.785 165.941 379.552 165.987 379.33L166.018 379.154L166.171 379.055C168.58 377.509 170.061 376.805 170.575 376.951C170.897 377.042 171.426 377.203 172.861 391.449C173.007 391.893 174.012 395.175 173.329 398.305C172.585 401.717 157.648 400.539 154.656 400.271C154.571 400.278 143.386 401.074 135.722 401.074V401.09H135.729Z" fill="#2C262C"/>
<path d="M175.209 157.665H90.3892L120.877 57.5969H154.694L175.209 157.665Z" fill="#F5F4F4"/>
<path d="M88.08 213.815C87.0674 219.944 82.9706 224.343 78.9276 223.632C74.8846 222.92 72.4219 217.381 73.4346 211.252C73.8028 208.796 74.7771 206.478 76.2731 204.481L80.8916 178.567L93.4656 181.192L87.5737 206.455C88.3485 208.842 88.525 211.367 88.0877 213.815H88.08Z" fill="#F6A6A9"/>
<path d="M126.217 57.6122C126.217 57.6122 105.15 57.0613 102.933 62.5854C100.716 68.1171 74.6621 199.699 74.6621 199.699H91.8469L126.217 57.6122Z" fill="#F5F4F4"/>
<path d="M130.689 47.6047C140.947 47.6047 149.263 39.3116 149.263 29.0815C149.263 18.8515 140.947 10.5584 130.689 10.5584C120.431 10.5584 112.116 18.8515 112.116 29.0815C112.116 39.3116 120.431 47.6047 130.689 47.6047Z" fill="#F6A6A9"/>
<path d="M133.604 6.36565C133.604 6.36565 109.76 41.7363 113.772 63.8019L99.9019 55.1333C99.9019 55.1333 109.668 10.4666 124.221 7.00069L133.604 6.358V6.36565Z" fill="#0B090B"/>
<path d="M157.579 157.665H101.92L71.4629 282.323C70.9029 287.587 74.2478 292.499 79.3802 293.868C96.0894 298.329 136.182 304.656 196.874 287.043C202.712 285.353 206.026 279.209 204.193 273.425L157.579 157.672V157.665Z" fill="#2C262C"/>
<path d="M82.5101 75.3473L82.1265 74.9647L81.7429 75.3473C63.0774 56.7476 32.8276 56.7706 14.1774 75.3855C-4.47269 94.0081 -4.8486 124.551 13.8169 143.151L82.1725 211.252L150.482 143.066C169.132 124.444 168.741 93.901 150.083 75.3014C131.418 56.7017 101.168 56.7247 82.5178 75.3396L82.5101 75.3473Z" fill="#85A9FF"/>
<path d="M132.991 66.9618L148.411 59.0735C155.461 56.4722 163.325 57.3444 169.631 61.4377C188.811 73.8783 226.617 101.307 210.368 114.865C188.956 132.738 160.011 101.039 160.011 101.039L132.991 66.9618Z" fill="#F5F4F4"/>
<path d="M132.653 80.4429C127.29 77.2906 124.659 71.889 126.784 68.3772C128.909 64.873 134.977 64.5899 140.348 67.7422C142.511 68.974 144.329 70.7184 145.649 72.8301L168.204 86.4948L161.207 97.2368L139.711 82.6234C137.194 82.478 134.77 81.7282 132.645 80.4352H132.653V80.4429Z" fill="#F6A6A9"/>
<path d="M147.981 92.8299L154.395 77.5508L185.734 87.895L171.718 111.162L147.981 92.8299Z" fill="#F5F4F4"/>
</g>
<defs>
<clipPath id="clip0_45_624">
<rect width="233" height="402" fill="white"/>
</clipPath>
</defs>
</svg>
