<svg width="25" height="26" viewBox="0 0 25 26" fill="none" xmlns="http://www.w3.org/2000/svg">
<g clip-path="url(#clip0_45_485)">
<path fill-rule="evenodd" clip-rule="evenodd" d="M5.37868 13.0035C5.37868 12.2096 5.51054 11.4485 5.74587 10.7346L1.6267 7.58902C0.82389 9.21902 0.371582 11.0557 0.371582 13.0035C0.371582 14.9496 0.823334 16.7851 1.62503 18.414L5.74198 15.2624C5.50887 14.5518 5.37868 13.7935 5.37868 13.0035Z" fill="#FBBC05"/>
<path fill-rule="evenodd" clip-rule="evenodd" d="M12.6112 5.78125C14.3358 5.78125 15.8936 6.39236 17.1176 7.39236L20.6782 3.83681C18.5084 1.94792 15.7267 0.78125 12.6112 0.78125C7.77432 0.78125 3.61731 3.54736 1.62671 7.58903L5.74588 10.7346C6.69501 7.85347 9.40051 5.78125 12.6112 5.78125Z" fill="#EB4335"/>
<path fill-rule="evenodd" clip-rule="evenodd" d="M12.6112 20.2257C9.40051 20.2257 6.69501 18.1535 5.74588 15.2724L1.62671 18.4174C3.61731 22.4596 7.77432 25.2257 12.6112 25.2257C15.5965 25.2257 18.4467 24.1657 20.5858 22.1796L16.6758 19.1568C15.5726 19.8518 14.1834 20.2257 12.6112 20.2257Z" fill="#34A853"/>
<path fill-rule="evenodd" clip-rule="evenodd" d="M24.2943 13.0035C24.2943 12.2812 24.1831 11.5035 24.0161 10.7812H12.6111V15.5035H19.1759C18.8477 17.1135 17.9542 18.3513 16.6757 19.1568L20.5857 22.1796C22.8328 20.094 24.2943 16.9874 24.2943 13.0035Z" fill="#4285F4"/>
</g>
<defs>
<clipPath id="clip0_45_485">
<rect width="25" height="25" fill="white" transform="translate(0 0.503479)"/>
</clipPath>
</defs>
</svg>
