<svg width="311" height="199" viewBox="0 0 311 199" fill="none" xmlns="http://www.w3.org/2000/svg">
<g clip-path="url(#clip0_22_22)">
<path d="M115.285 57.5071C63.2716 97.7172 89.4775 115.014 57.6424 115.014C25.8074 115.014 0 89.2675 0 57.5071C0 25.7468 25.8074 0 57.6424 0C89.4775 0 167.298 17.2971 115.285 57.5071Z" fill="#0037B8"/>
<path d="M127.51 116.878C127.51 123.561 102.826 138.751 70.2832 138.751C37.7405 138.751 9.533 123.561 9.533 116.878C9.533 115.206 12.296 117.282 15.2752 115.836C23.9485 111.62 44.6296 114.728 68.1025 114.554C68.8266 114.548 69.5535 114.545 70.2832 114.545C102.826 114.545 127.51 110.195 127.51 116.878Z" fill="#2C262C"/>
<path opacity="0.1" d="M127.51 116.878C127.51 123.561 102.826 138.751 70.2832 138.751C37.7405 138.751 9.533 123.561 9.533 116.878C9.533 115.206 12.296 117.282 15.2752 115.836C23.9485 111.62 44.6296 114.728 68.1025 114.554C68.8266 114.548 69.5535 114.545 70.2832 114.545C102.826 114.545 127.51 110.195 127.51 116.878Z" fill="#2C262C"/>
<path d="M127.379 116.753C127.379 123.436 100.999 128.856 68.4561 128.856C35.9135 128.856 9.533 123.436 9.533 116.753C9.533 115.081 11.1795 113.491 14.1587 112.046C22.832 107.829 42.8025 104.833 66.2754 104.659C66.9995 104.653 67.7264 104.649 68.4561 104.649C100.999 104.649 127.379 110.07 127.379 116.753Z" fill="#372F37"/>
<path opacity="0.1" d="M66.9762 104.907C64.4733 108.978 61.0791 112.431 57.0482 115.007C53.0173 117.582 48.4541 119.214 43.701 119.78C38.9478 120.346 34.128 119.83 29.6028 118.273C25.0777 116.716 20.9646 114.156 17.5721 110.787C25.7939 107.431 44.725 105.045 66.9762 104.907Z" fill="black"/>
<path d="M40.5932 114.795C56.7383 114.795 69.8264 100.805 69.8264 83.5469C69.8264 66.2893 56.7383 52.2992 40.5932 52.2992C24.4482 52.2992 11.3601 66.2893 11.3601 83.5469C11.3601 100.805 24.4482 114.795 40.5932 114.795Z" fill="#372F37"/>
<path d="M72.3969 35.1313V42.4564L68.6265 46.8119C68.6265 46.8119 67.0389 46.218 67.0389 42.2584L66.4436 36.5171L72.3969 35.1313Z" fill="#FFB9B9"/>
<path d="M68.6264 42.4564C68.6264 42.4564 74.7782 38.2989 74.9766 36.913C75.1751 35.5272 83.9066 29.1919 82.5175 33.1515C81.1284 37.111 76.7626 38.8928 76.7626 38.8928C76.7626 38.8928 73.3891 47.9998 70.4124 47.8018C67.4358 47.6038 67.4358 43.8422 68.6264 42.4564Z" fill="#FFB9B9"/>
<path d="M65.0545 87.0013L64.4591 90.5651L67.6343 89.773V87.0013H65.0545Z" fill="#FFB9B9"/>
<path d="M65.6498 88.9811C65.6498 88.9811 69.3195 86.8121 69.4691 87.7976C69.6187 88.7831 71.2062 92.5447 72 92.9407C72.7938 93.3366 73.786 97.6921 72 97.4941C70.6167 97.3408 65.5432 94.6935 63.3255 93.5074C63.0525 93.3606 62.8464 93.115 62.7494 92.8211C62.6525 92.5272 62.6722 92.2074 62.8045 91.9276C62.9346 91.6876 63.0243 91.4279 63.0701 91.1589C63.0701 90.7629 65.6498 88.9811 65.6498 88.9811Z" fill="#2C262C"/>
<path d="M63.8638 48.7917C63.8638 48.7917 78.3502 55.5229 76.9611 60.6703C75.572 65.8178 70.4124 87.5953 70.4124 87.5953C70.4124 87.5953 64.6576 88.9811 64.2607 87.5953C63.8638 86.2094 68.0311 64.6299 67.6342 63.838C67.2374 63.0461 59.895 57.8987 59.895 57.8987L44.8133 51.5634L51.1635 45.6241L63.8638 48.7917Z" fill="#413941"/>
<path d="M74.7782 88.1892L76.5643 92.7428L73.3891 94.1286L71.4046 90.5651L74.7782 88.1892Z" fill="#FFB9B9"/>
<path d="M64.0623 16.3234C64.0623 16.3234 62.2763 18.6991 63.6654 19.887C65.0545 21.0749 64.0623 25.4304 64.0623 25.4304L62.2763 30.3798L55.1323 28.994V20.8769L55.5292 16.9173C55.5292 16.9173 59.1012 13.5517 59.4981 10.978C59.895 8.4043 64.0623 16.3234 64.0623 16.3234Z" fill="#FFB9B9"/>
<path opacity="0.1" d="M64.0623 16.3234C64.0623 16.3234 62.2763 18.6991 63.6654 19.887C65.0545 21.0749 64.0623 25.4304 64.0623 25.4304L62.2763 30.3798L55.1323 28.994V20.8769L55.5292 16.9173C55.5292 16.9173 59.1012 13.5517 59.4981 10.978C59.895 8.4043 64.0623 16.3234 64.0623 16.3234Z" fill="black"/>
<path d="M52.1557 47.2079C52.1557 47.2079 61.4825 57.5027 61.4825 57.8987C61.4825 58.2946 66.4436 66.4117 66.4436 66.4117L76.1673 87.9912C76.1673 87.9912 72.3969 93.1386 70.8093 92.7427C69.2218 92.3467 57.9105 69.3814 57.9105 69.3814C57.9105 69.3814 55.9261 64.234 50.5681 63.0461C45.2102 61.8582 41.0429 57.7007 43.0273 52.9492C45.0117 48.1978 52.1557 47.2079 52.1557 47.2079Z" fill="#413941"/>
<path d="M64.0623 17.7092C67.5694 17.7092 70.4124 14.8728 70.4124 11.3739C70.4124 7.87507 67.5694 5.03867 64.0623 5.03867C60.5552 5.03867 57.7121 7.87507 57.7121 11.3739C57.7121 14.8728 60.5552 17.7092 64.0623 17.7092Z" fill="#FFB9B9"/>
<path d="M63.8638 21.6688C63.8638 21.6688 63.07 26.2223 62.2763 26.6182C61.4825 27.0142 60.8872 28.4 59.1012 26.4203C57.3152 24.4405 55.7276 20.4809 55.7276 20.4809L49.5759 28.0041L48.9806 48.7917C48.9806 48.7917 55.9261 47.0099 58.109 48.7917C60.2918 50.5735 65.0545 50.3755 65.0545 50.3755L64.0623 46.416L64.856 39.6847L64.6576 33.5474L64.4591 29.1919L63.8638 21.6688Z" fill="#F2F2F2"/>
<path d="M63.1647 18.3364C63.1647 18.3364 65.8482 19.689 66.0467 20.4809C66.2451 21.2728 69.8171 22.8566 69.8171 22.8566C69.8171 22.8566 71.2062 24.2425 71.2062 25.0344C71.2062 25.8263 66.4436 34.9333 66.4436 34.9333C66.4436 34.9333 65.4513 41.0706 65.8482 42.2584C66.2451 43.4463 65.0545 47.9998 65.0545 47.9998L67.4358 50.7715H65.2529C65.2529 50.7715 62.8716 49.5836 62.8716 48.9897C62.8716 48.3957 63.2685 44.2382 63.4669 42.4564C63.6654 40.6746 63.6654 34.3393 63.2685 32.1616C62.8716 29.9838 63.07 24.2425 63.07 22.8566C63.07 21.4708 63.1647 18.3364 63.1647 18.3364Z" fill="#001852"/>
<path d="M57.0175 15.3302C57.0175 15.3302 56.1245 15.5315 53.5448 16.3234C50.965 17.1153 46.9962 18.3032 45.607 19.887C44.632 21.0583 43.7684 22.3176 43.0273 23.6485L43.8211 37.9029C43.8211 37.9029 42.2335 40.8726 42.432 42.4564C42.6304 44.0402 44.218 44.2382 43.0273 47.6038C41.8366 50.9694 39.4553 53.9391 41.6382 54.3351C43.8211 54.731 49.5759 53.3452 52.1557 54.1371C54.7354 54.929 57.7121 51.1674 57.7121 51.1674C57.7121 51.1674 53.7432 51.5634 54.3386 49.9795C54.9339 48.3957 61.4825 30.5778 60.0934 26.6182C58.7043 22.6587 57.0175 15.3302 57.0175 15.3302Z" fill="#001852"/>
<path d="M70.214 24.0445L71.2062 24.8364C71.2062 24.8364 73.9844 34.7353 73.1907 35.7252C72.3969 36.7151 66.0467 38.8928 65.6498 37.507C65.2529 36.1212 70.214 24.0445 70.214 24.0445Z" fill="#001852"/>
<path d="M40.8444 30.9737C40.8444 30.9737 37.8678 39.4868 37.8678 41.8625C37.8678 44.2382 38.2647 58.0966 38.2647 58.0966C38.2647 58.0966 38.4631 64.036 42.6304 61.6602C46.7977 59.2845 42.6304 57.7007 42.6304 57.7007C42.6304 57.7007 42.8288 42.0605 44.4164 39.8827C46.0039 37.705 46.5993 34.5373 46.5993 34.5373L40.8444 30.9737Z" fill="#FFB9B9"/>
<path d="M73.4653 92.6839C73.4653 92.6839 76.442 91.1001 77.0373 92.2879C77.6326 93.4758 80.8077 100.009 80.4108 100.801C80.0139 101.593 77.8311 104.761 75.2513 103.969C72.6715 103.177 72.4731 99.0192 72.4731 99.0192L72.2747 94.2677L73.4653 92.6839Z" fill="#2C262C"/>
<path d="M65.3057 9.84366C64.8683 10.0491 64.3494 10.1718 64.0745 10.5686C63.8708 10.8626 63.8506 11.2447 63.702 11.5699C63.5398 11.8919 63.2606 12.1401 62.9213 12.2638C62.5821 12.3876 62.2083 12.3777 61.8761 12.236C61.795 11.8417 61.5651 11.4934 61.2341 11.2632C61.0668 11.1535 60.8687 11.1002 60.6689 11.1111C60.469 11.1221 60.278 11.1967 60.1238 11.324C59.7148 11.7131 59.8596 12.3915 59.6687 12.9221C59.4895 13.2955 59.243 13.6327 58.9415 13.917C58.5071 14.4169 58.1611 15.0033 57.6381 15.41C57.115 15.8168 56.3218 15.993 55.8021 15.582C55.3652 15.2363 55.2746 14.5987 55.3807 14.0525C55.4868 13.5063 55.75 13.0034 55.8984 12.4671C56.3806 10.7246 55.6118 8.86422 55.8497 7.07213C56.1545 4.77585 58.1108 2.96201 60.2944 2.17484C61.2031 1.80568 62.1979 1.70053 63.1639 1.87153C64.1625 2.09398 65.0156 2.72826 65.9721 3.09101C66.9948 3.47894 68.107 3.54667 69.1773 3.77346C70.2477 4.00024 71.3491 4.43873 71.9702 5.33745C72.4034 5.96428 72.5523 6.74274 72.9113 7.41462C73.3246 8.18152 73.994 8.77984 74.8033 9.10571L73.6719 9.04137C73.8616 9.54522 74.1709 9.99565 74.5734 10.354C74.0428 10.462 73.4913 10.3892 73.0071 10.1475C73.0159 10.3795 73.0722 10.6072 73.1726 10.8167C73.2731 11.0261 73.4155 11.2128 73.5911 11.3651C72.7204 11.339 71.8023 11.2989 71.0666 10.8337C70.7063 10.6058 70.4124 10.2884 70.0734 10.03C69.3506 9.4794 68.4538 9.21803 67.5797 8.96774C67.1207 8.83631 66.5682 8.65356 66.1531 8.94808C65.8074 9.19335 65.7528 9.63372 65.3057 9.84366Z" fill="#372F37"/>
<path d="M46.0039 21.2728L43.0273 23.6486L39.0584 32.7555C39.0584 32.7555 44.6148 37.111 46.0039 36.5171C47.393 35.9232 49.7743 25.4304 49.7743 25.4304L46.0039 21.2728Z" fill="#001852"/>
<path d="M90.649 32.1395L78.1238 39.0033C78.0512 39.0514 77.9689 39.0831 77.8827 39.0961C77.7966 39.109 77.7086 39.103 77.6249 39.0784C77.5413 39.0538 77.4642 39.0112 77.3988 38.9536C77.3335 38.8961 77.2816 38.8249 77.2468 38.7452L74.1785 32.3468C74.1204 32.1644 74.1298 31.9672 74.2051 31.7912C74.2804 31.6151 74.4166 31.4719 74.5889 31.3876L84.9879 26.0401C85.116 25.9633 85.268 25.9362 85.4148 25.9642C85.5616 25.9922 85.6929 26.0733 85.7836 26.1919L90.978 31.0741C91.0291 31.165 91.0612 31.2653 91.0723 31.369C91.0834 31.4727 91.0732 31.5775 91.0424 31.6772C91.0117 31.7768 90.9609 31.8692 90.8933 31.9487C90.8256 32.0281 90.7425 32.0931 90.649 32.1395Z" fill="#372F37"/>
<path d="M89.8131 31.1943L78.0711 37.89L74.9463 32.2716L85.0194 26.8066L89.8131 31.1943Z" fill="#F0F0F0"/>
<path d="M79.9612 29.259C80.0224 29.1859 80.0213 29.0844 79.9588 29.0324C79.8963 28.9804 79.7961 28.9975 79.7349 29.0706C79.6737 29.1437 79.6748 29.2452 79.7373 29.2972C79.7998 29.3492 79.9 29.3321 79.9612 29.259Z" fill="#F2F2F2"/>
<path d="M84.2832 34.9758C84.324 34.927 84.3233 34.8594 84.2816 34.8247C84.2399 34.79 84.1731 34.8014 84.1323 34.8502C84.0915 34.8989 84.0923 34.9666 84.1339 35.0012C84.1756 35.0359 84.2424 35.0245 84.2832 34.9758Z" fill="#F2F2F2"/>
<path d="M230.707 68.0866H138.361C136.152 68.0866 134.361 69.8775 134.361 72.0866V119.208C134.361 121.418 136.152 123.208 138.361 123.208H230.707C232.916 123.208 234.707 121.418 234.707 119.208V72.0866C234.707 69.8775 232.916 68.0866 230.707 68.0866Z" fill="#413941"/>
<path opacity="0.3" d="M151.177 96.2556C155.745 96.2556 159.448 92.5616 159.448 88.0048C159.448 83.448 155.745 79.754 151.177 79.754C146.61 79.754 142.907 83.448 142.907 88.0048C142.907 92.5616 146.61 96.2556 151.177 96.2556Z" fill="#85A9FF"/>
<path opacity="0.3" d="M184.534 96.2556C189.102 96.2556 192.804 92.5616 192.804 88.0048C192.804 83.448 189.102 79.754 184.534 79.754C179.967 79.754 176.264 83.448 176.264 88.0048C176.264 92.5616 179.967 96.2556 184.534 96.2556Z" fill="#85A9FF"/>
<path opacity="0.3" d="M217.891 96.2556C222.458 96.2556 226.161 92.5616 226.161 88.0048C226.161 83.448 222.458 79.754 217.891 79.754C213.323 79.754 209.621 83.448 209.621 88.0048C209.621 92.5616 213.323 96.2556 217.891 96.2556Z" fill="#85A9FF"/>
<path opacity="0.3" d="M162.342 102.444H139.737V104.644H162.342V102.444Z" fill="#85A9FF"/>
<path opacity="0.3" d="M195.975 102.444H173.369V104.644H195.975V102.444Z" fill="#85A9FF"/>
<path d="M229.607 102.444H207.002V104.644H229.607V102.444Z" fill="#0037B8"/>
<path d="M311 175.898C311 182.956 284.929 199 250.558 199C216.187 199 186.395 182.956 186.395 175.898C186.395 174.132 189.313 176.325 192.46 174.798C201.62 170.344 223.463 173.627 248.255 173.444C249.02 173.437 249.788 173.433 250.558 173.433C284.929 173.433 311 168.839 311 175.898Z" fill="#2C262C"/>
<path opacity="0.1" d="M311 175.898C311 182.956 284.929 199 250.558 199C216.187 199 186.395 182.956 186.395 175.898C186.395 174.132 189.313 176.325 192.46 174.798C201.62 170.344 223.463 173.627 248.255 173.444C249.02 173.437 249.788 173.433 250.558 173.433C284.929 173.433 311 168.839 311 175.898Z" fill="#2C262C"/>
<path d="M310.862 175.766C310.862 182.824 283 188.549 248.629 188.549C214.258 188.549 186.395 182.824 186.395 175.766C186.395 174 188.134 172.321 191.281 170.794C200.441 166.34 221.534 163.176 246.325 162.993C247.09 162.986 247.858 162.982 248.629 162.982C283 162.982 310.862 168.707 310.862 175.766Z" fill="#372F37"/>
<path d="M251.852 164.414C260.08 164.414 266.75 156.867 266.75 147.558C266.75 138.249 260.08 130.702 251.852 130.702C243.625 130.702 236.955 138.249 236.955 147.558C236.955 156.867 243.625 164.414 251.852 164.414Z" fill="#2C262C"/>
<path d="M258.397 117.06L236.008 117.747C236.008 117.747 213.039 139.253 229.4 145.095C229.4 145.095 252.714 146.098 257.536 142.317C257.536 142.317 263.564 118.606 258.397 117.06ZM257.364 123.417L233.424 124.963C233.424 124.963 235.146 119.121 242.036 119.121C248.925 119.121 256.675 117.575 257.364 121.183C258.053 124.792 257.364 123.417 257.364 123.417Z" fill="#372F37"/>
<path d="M281.303 130.634L251.852 129.603L258.741 100.565C258.741 100.565 286.298 98.5027 285.609 105.547C284.92 112.592 281.303 130.634 281.303 130.634Z" fill="#2C262C"/>
<path d="M252.872 144.514C252.872 144.514 235.146 147.644 228.774 138.366C222.402 129.087 252.886 134.07 252.886 134.07L255.469 141.115L252.872 144.514Z" fill="#413941"/>
<path d="M247.547 183.899C252.017 183.899 255.641 180.283 255.641 175.823C255.641 171.363 252.017 167.747 247.547 167.747C243.076 167.747 239.452 171.363 239.452 175.823C239.452 180.283 243.076 183.899 247.547 183.899Z" fill="#2C262C"/>
<path d="M248.322 181.665C251.128 181.665 253.402 179.049 253.402 175.823C253.402 172.596 251.128 169.981 248.322 169.981C245.516 169.981 243.241 172.596 243.241 175.823C243.241 179.049 245.516 181.665 248.322 181.665Z" fill="#372F37"/>
<path d="M291.809 99.7055C291.809 99.7055 285.092 95.9254 284.748 104.86L279.064 146.441H281.475L288.02 101.939C288.02 101.939 291.292 102.455 291.809 102.455C292.326 102.455 291.809 99.7055 291.809 99.7055Z" fill="#372F37"/>
<path d="M298.502 104.293C298.44 104.514 298.332 104.719 298.185 104.895C298.038 105.07 297.854 105.213 297.647 105.312C297.44 105.411 297.215 105.465 296.985 105.47C296.756 105.475 296.528 105.431 296.317 105.341L288.525 102.017L289.938 98.9114L297.617 102.401C297.967 102.56 298.248 102.837 298.41 103.184C298.572 103.531 298.605 103.925 298.502 104.293Z" fill="#2C262C"/>
<path d="M251.163 143.52C251.163 143.52 238.763 142.146 235.319 154.001C231.874 165.857 232.219 174.964 229.291 174.276C226.363 173.589 220.163 171.184 220.163 171.184L220.679 174.792C220.679 174.792 231.53 180.29 233.252 174.448C234.974 168.606 236.008 147.129 245.824 147.644C255.641 148.159 257.364 147.129 257.364 147.129L251.163 143.52Z" fill="#2C262C"/>
<path d="M227.568 137.85C227.568 137.85 217.924 139.053 214.135 146.098C210.346 153.142 208.451 165.857 208.451 165.857H212.068C212.068 165.857 214.135 140.599 224.985 141.974L227.568 137.85Z" fill="#2C262C"/>
<path d="M221.024 177.197L205.696 167.747C205.696 167.747 204.835 164.311 214.651 162.936C214.651 162.936 233.212 169.412 231.423 171.844C229.635 174.276 223.607 178.057 221.024 177.197Z" fill="#2C262C"/>
<path d="M249.482 122.882C249.954 123.395 258.639 131.639 258.639 131.639C258.639 131.639 257.776 137.394 248.483 138.108L232.995 139.298C232.995 139.298 230.067 150.016 226.586 153.441C223.106 156.867 224.703 157.058 223.397 158.727C222.091 160.397 223.924 160.844 221.941 161.006C219.958 161.169 215.861 158.777 215.817 156.927C215.772 155.077 216.929 154.017 217.443 153.546C217.957 153.075 219.261 148.571 220.042 147.619C220.824 146.666 223.783 135.21 223.783 135.21C223.783 135.21 226.737 129.668 230.831 129.226C234.926 128.784 239.481 126.797 239.481 126.797" fill="#413941"/>
<path opacity="0.1" d="M249.482 122.882C249.954 123.395 258.639 131.639 258.639 131.639C258.639 131.639 257.776 137.394 248.483 138.108L232.995 139.298C232.995 139.298 230.067 150.016 226.586 153.441C223.106 156.867 224.703 157.058 223.397 158.727C222.091 160.397 223.924 160.844 221.941 161.006C219.958 161.169 215.861 158.777 215.817 156.927C215.772 155.077 216.929 154.017 217.443 153.546C217.957 153.075 219.261 148.571 220.042 147.619C220.824 146.666 223.783 135.21 223.783 135.21C223.783 135.21 226.737 129.668 230.831 129.226C234.926 128.784 239.481 126.797 239.481 126.797" fill="black" fill-opacity="0.8"/>
<path d="M234.458 95.3661C234.458 95.3661 231.198 86.5301 228.967 89.3455C226.736 92.1609 232.557 96.7843 232.557 96.7843L234.458 95.3661Z" fill="#A0616A"/>
<path d="M251.628 99.9786L249.772 99.1952C249.772 99.1952 246.366 101.492 246.141 102.238C245.917 102.983 246.403 102.722 245.065 103.378C243.727 104.035 240.071 105.623 239.586 105.884C239.1 106.145 233.598 96.4338 234.914 95.0394C234.914 95.0394 232.451 95.9251 231.33 95.5895C231.33 95.5895 234.129 109.127 234.555 110.961C234.98 112.796 235.975 113.012 237.828 113.08C239.682 113.147 250.939 109.852 250.939 109.852L251.628 99.9786Z" fill="#001852"/>
<path d="M222.592 158.161C222.592 158.161 222.498 160.081 222.819 160.302C223.141 160.523 225.127 165.196 222.068 165.646C219.009 166.097 217.329 165.511 216.589 165.759C215.85 166.007 203.656 165.003 203.75 163.083C203.844 161.162 209.941 161.664 209.941 161.664C209.941 161.664 215.98 158.817 217.11 157.042C218.241 155.266 222.592 158.161 222.592 158.161Z" fill="#372F37"/>
<path opacity="0.1" d="M222.592 158.161C222.592 158.161 222.498 160.081 222.819 160.302C223.141 160.523 225.127 165.196 222.068 165.646C219.009 166.097 217.329 165.511 216.589 165.759C215.85 166.007 203.656 165.003 203.75 163.083C203.844 161.162 209.941 161.664 209.941 161.664C209.941 161.664 215.98 158.817 217.11 157.042C218.241 155.266 222.592 158.161 222.592 158.161Z" fill="#372F37"/>
<path d="M228.883 168.277C228.883 168.277 227.029 176.338 225.668 176.256C224.308 176.174 214.704 171.511 213.523 170.587C212.005 169.401 212.065 167.306 213.807 167.746C215.548 168.186 220.474 167.791 221.312 166.904L223.465 164.622L228.883 168.277Z" fill="#372F37"/>
<path d="M247.896 123.491C248.404 123.968 263.861 137.049 263.861 137.049C263.861 137.049 263.419 142.851 254.203 144.237L238.842 146.548C238.842 146.548 236.703 157.45 233.481 161.118C230.259 164.787 231.866 164.862 230.685 166.622C229.504 168.381 231.365 168.695 229.399 169C227.433 169.306 223.173 167.218 222.994 165.376C222.814 163.534 223.891 162.393 224.369 161.886C224.848 161.379 225.82 156.793 226.53 155.786C227.24 154.779 229.357 143.139 229.357 143.139C229.357 143.139 231.899 137.397 235.95 136.659C240.001 135.921 244.4 133.609 244.4 133.609" fill="#413941"/>
<path d="M262.124 95.151C266.171 95.151 269.453 91.8775 269.453 87.8393C269.453 83.8011 266.171 80.5275 262.124 80.5275C258.076 80.5275 254.795 83.8011 254.795 87.8393C254.795 91.8775 258.076 95.151 262.124 95.151Z" fill="#A0616A"/>
<path d="M265.965 92.4035C265.965 92.4035 264.866 96.8702 266.54 99.1597C268.214 101.449 255.343 100.359 255.343 100.359C255.343 100.359 258.827 93.1112 257.541 91.4258C256.256 89.7403 265.965 92.4035 265.965 92.4035Z" fill="#A0616A"/>
<path d="M249.513 99.4266C247.958 101.074 248.488 110.418 248.488 110.418L249.481 118.763C249.481 118.763 248.292 120.277 248.681 120.881C249.07 121.485 249.705 122.082 248.479 122.365C247.253 122.648 244.428 123.103 245.332 124.43C245.627 124.806 245.944 125.166 246.279 125.506C246.567 125.81 246.91 126.163 247.299 126.557C248.208 127.473 249.364 128.599 250.647 129.787C251.01 130.126 251.383 130.468 251.764 130.813C256.658 135.23 262.743 139.905 264.003 137.661C266.111 133.903 267.576 133.366 267.479 130.167C267.382 126.968 270.096 118.758 270.096 118.758C270.096 118.758 273.252 104.746 268.805 100.569L268.11 99.4597C267.787 98.9438 267.31 98.5423 266.745 98.312C266.181 98.0817 265.559 98.0342 264.966 98.1764C262.795 98.6938 259.468 99.4086 258.026 99.2932C255.799 99.114 256.287 98.2002 256.287 98.2002C256.287 98.2002 251.068 97.7787 249.513 99.4266Z" fill="#001852"/>
<path d="M242.641 129.314C242.641 129.314 233.574 131.558 234.904 134.72C236.234 137.882 244.083 132.104 244.083 132.104L242.641 129.314Z" fill="#A0616A"/>
<path d="M266.18 90.5143C265.999 90.2962 266.178 89.9775 266.335 89.7421C267.176 88.4813 267.337 86.6874 266.411 85.4869C266.046 85.0398 265.59 84.6755 265.073 84.4184C264.346 84.0344 263.554 83.7916 262.736 83.7031C262.302 83.6967 261.872 83.6122 261.467 83.4536C261.212 83.3242 260.005 82.9028 259.747 82.7801C259.177 82.5102 258.386 82.6268 258.021 82.114C257.672 81.6235 257.998 80.9515 258.337 80.4541C259.109 79.3208 261.061 78.3815 262.402 78.0841C263.42 77.8583 264.481 78.1757 265.424 78.619C266.511 79.1569 267.542 79.8005 268.503 80.5404C269.822 81.5153 271.121 82.5957 271.913 84.03C272.705 85.4644 272.896 87.3326 272.001 88.7055C271.815 88.9914 271.587 89.2496 271.413 89.543C270.987 90.2586 270.91 91.1241 270.609 91.9003C270.385 92.4675 270.045 92.9817 269.609 93.4096C269.174 93.8375 268.654 94.1696 268.082 94.3846C267.165 94.7227 266.038 94.8161 265.496 95.6277L265.244 93.9355C265.178 93.7221 265.187 93.4926 265.27 93.2854C265.354 93.0781 265.506 92.9056 265.701 92.7966L266.999 91.7056C267.258 91.53 267.454 91.2774 267.56 90.9837C267.841 89.8149 266.481 90.878 266.18 90.5143Z" fill="#372F37"/>
<path opacity="0.1" d="M253.181 122.716L247.299 126.557C248.465 127.734 250.041 129.256 251.764 130.813C253.397 129.936 255.062 128.987 256.551 128.033C262.001 124.544 266.673 115.782 268.766 111.531C270.86 107.281 269.156 104.007 269.156 104.007C267.769 103.394 266.302 102.982 264.798 102.784C262.07 102.373 253.181 122.716 253.181 122.716Z" fill="black"/>
<path opacity="0.1" d="M252.403 121.508L246.279 125.506C246.567 125.81 246.91 126.163 247.299 126.557C248.208 127.473 249.364 128.599 250.647 129.787C252.386 128.861 254.181 127.845 255.774 126.825C261.223 123.335 265.896 114.574 267.989 110.323C270.082 106.073 264.45 107.597 264.45 107.597C264.45 107.597 267.373 106.278 264.645 105.867C261.916 105.457 252.403 121.508 252.403 121.508Z" fill="black"/>
<path d="M268.887 103.276C268.887 103.276 270.591 106.55 268.497 110.801C266.404 115.051 261.732 123.813 256.282 127.302C250.833 130.792 243.036 134.229 243.036 134.229C243.036 134.229 242.297 130.187 241.048 129.732L252.912 121.985C252.912 121.985 261.801 101.643 264.529 102.053C266.033 102.251 267.5 102.663 268.887 103.276Z" fill="#001852"/>
<path d="M244.791 146.441V166.544H247.03V146.097L244.791 146.441Z" fill="#372F37"/>
<path d="M248.063 158.812C248.063 158.812 252.369 175.651 249.613 178.057C249.613 178.057 245.997 167.404 243.241 168.778L244.102 158.812H248.063Z" fill="#2C262C"/>
<path d="M281.475 122.214L259.086 122.902C259.086 122.902 239.28 142.146 255.641 147.988C255.641 147.988 275.792 151.252 280.614 147.472C280.614 147.472 286.642 123.761 281.475 122.214ZM280.442 128.572L256.503 130.118C256.503 130.118 258.225 124.276 265.114 124.276C272.003 124.276 279.753 122.73 280.442 126.338C281.131 129.946 280.442 128.572 280.442 128.572Z" fill="#372F37"/>
<path d="M276.395 183.899C288.808 183.899 298.87 172.513 298.87 158.469C298.87 144.424 288.808 133.039 276.395 133.039C263.982 133.039 253.919 144.424 253.919 158.469C253.919 172.513 263.982 183.899 276.395 183.899Z" fill="#2C262C"/>
<path d="M277.428 177.369C286.797 177.369 294.392 168.907 294.392 158.469C294.392 148.03 286.797 139.568 277.428 139.568C268.059 139.568 260.464 148.03 260.464 158.469C260.464 168.907 268.059 177.369 277.428 177.369Z" fill="#372F37"/>
<path d="M281.82 158.211C281.819 157.881 281.786 157.552 281.721 157.229L294.392 150.909L293.531 149.019L280.732 155.24C280.603 155.107 280.46 154.988 280.306 154.885L280.316 154.887L284.059 136.304L280.748 136.229L278.548 154.517L278.759 154.561C278.588 154.596 278.422 154.653 278.265 154.729L267.195 143.393L265.631 145.582L277.004 156.021C276.719 156.568 276.548 157.166 276.5 157.78L260.464 164.311L260.119 167.06L276.836 160.046C276.992 160.432 277.213 160.788 277.489 161.1L272.347 178.572H274.242L278.558 161.811C278.749 161.872 278.949 161.904 279.15 161.905C279.539 161.902 279.918 161.788 280.245 161.578L289.226 173.417L291.981 171.527L281.459 160.06C281.7 159.474 281.823 158.845 281.82 158.211Z" fill="#413941"/>
<path d="M222.784 96.1395C227.352 96.1395 231.054 92.4455 231.054 87.8887C231.054 83.3318 227.352 79.6378 222.784 79.6378C218.216 79.6378 214.514 83.3318 214.514 87.8887C214.514 92.4455 218.216 96.1395 222.784 96.1395Z" fill="#0037B8"/>
</g>
<defs>
<clipPath id="clip0_22_22">
<rect width="311" height="199" fill="white"/>
</clipPath>
</defs>
</svg>
